<svg width="1179" height="232" viewBox="0 0 1179 232" fill="none" xmlns="http://www.w3.org/2000/svg">
<path d="M47.3 116C47.3 129.8 50.4 141.9 56.6 152.3C63 162.5 71.3 170.4 81.5 176C91.7 181.4 102.8 184.1 114.8 184.1C124.8 184.1 133.7 182.8 141.5 180.2C149.3 177.6 156.3 174.1 162.5 169.7C168.9 165.3 174.4 160.5 179 155.3V203.6C170.4 210.4 161 215.7 150.8 219.5C140.8 223.3 128.1 225.2 112.7 225.2C96.7 225.2 81.8 222.6 68 217.4C54.4 212.2 42.5 204.7 32.3 194.9C22.3 185.1 14.5 173.6 8.9 160.4C3.5 147 0.800001 132.2 0.800001 116C0.800001 99.8 3.5 85.1 8.9 71.9C14.5 58.5 22.3 46.9 32.3 37.1C42.5 27.3 54.4 19.8 68 14.6C81.8 9.39999 96.7 6.79999 112.7 6.79999C128.1 6.79999 140.8 8.69999 150.8 12.5C161 16.3 170.4 21.6 179 28.4V76.7C174.4 71.5 168.9 66.7 162.5 62.3C156.3 57.9 149.3 54.4 141.5 51.8C133.7 49.2 124.8 47.9 114.8 47.9C102.8 47.9 91.7 50.7 81.5 56.3C71.3 61.7 63 69.5 56.6 79.7C50.4 89.9 47.3 102 47.3 116ZM221.687 11H264.587V183.5H348.287V221H221.687V11ZM372.859 11H416.359V221H372.859V11ZM489.228 221V184.7H595.128V221H489.228ZM489.228 47.3V11H595.128V47.3H489.228ZM489.228 127.4V91.7H589.128V127.4H489.228ZM461.628 11H503.028V221H461.628V11ZM786.809 11H828.209V231.5L678.809 90.8V221H637.409V0.499996L786.809 141.2V11ZM852.835 49.7V11H1008.84V49.7H952.135V221H909.235V49.7H852.835ZM1051.51 150.5C1055.91 158.3 1060.71 165.1 1065.91 170.9C1071.31 176.7 1077.21 181.2 1083.61 184.4C1090.01 187.6 1096.91 189.2 1104.31 189.2C1112.91 189.2 1119.91 187 1125.31 182.6C1130.71 178.2 1133.41 172.2 1133.41 164.6C1133.41 158 1131.71 152.7 1128.31 148.7C1125.11 144.7 1120.21 141.2 1113.61 138.2C1107.21 135 1099.31 131.6 1089.91 128C1084.91 126.2 1079.11 123.8 1072.51 120.8C1066.11 117.6 1060.01 113.6 1054.21 108.8C1048.41 103.8 1043.61 97.8 1039.81 90.8C1036.01 83.6 1034.11 75 1034.11 65C1034.11 53 1037.11 42.7 1043.11 34.1C1049.31 25.3 1057.61 18.6 1068.01 14C1078.61 9.19999 1090.41 6.79999 1103.41 6.79999C1116.81 6.79999 1128.31 9.09999 1137.91 13.7C1147.71 18.1 1155.81 23.8 1162.21 30.8C1168.81 37.6 1173.91 44.7 1177.51 52.1L1143.91 70.7C1141.11 65.7 1137.71 61.2 1133.71 57.2C1129.91 53 1125.51 49.7 1120.51 47.3C1115.51 44.7 1109.81 43.4 1103.41 43.4C1095.01 43.4 1088.71 45.4 1084.51 49.4C1080.31 53.2 1078.21 57.7 1078.21 62.9C1078.21 68.1 1079.91 72.7 1083.31 76.7C1086.71 80.5 1091.91 84.2 1098.91 87.8C1105.91 91.2 1114.71 94.7 1125.31 98.3C1132.11 100.7 1138.61 103.7 1144.81 107.3C1151.21 110.9 1156.91 115.3 1161.91 120.5C1167.11 125.5 1171.11 131.5 1173.91 138.5C1176.91 145.3 1178.41 153.2 1178.41 162.2C1178.41 172.4 1176.41 181.5 1172.41 189.5C1168.41 197.5 1162.91 204.3 1155.91 209.9C1148.91 215.3 1141.01 219.4 1132.21 222.2C1123.61 225.2 1114.51 226.7 1104.91 226.7C1092.11 226.7 1080.11 224.3 1068.91 219.5C1057.91 214.5 1048.31 207.8 1040.11 199.4C1031.91 191 1025.51 181.9 1020.91 172.1L1051.51 150.5Z" fill="url(#paint0_linear_374_1316)" fill-opacity="0.05"/>
<defs>
<linearGradient id="paint0_linear_374_1316" x1="590.5" y1="-100" x2="590.5" y2="236.019" gradientUnits="userSpaceOnUse">
<stop stop-color="#1E222E"/>
<stop offset="0.378252" stop-color="#1E222E"/>
<stop offset="0.722936" stop-color="#0096FF"/>
<stop offset="1" stop-color="#1E222E"/>
</linearGradient>
</defs>
</svg>
