<svg width="60" height="60" viewBox="0 0 60 60" fill="none" xmlns="http://www.w3.org/2000/svg">
<circle cx="30" cy="30" r="29.5" fill="white" stroke="#C6C6C6"/>
<path d="M37.5 42.5C38.163 42.5 38.7989 42.2366 39.2678 41.7678C39.7366 41.2989 40 40.663 40 40V20C40 19.337 39.7366 18.7011 39.2678 18.2322C38.7989 17.7634 38.163 17.5 37.5 17.5H30V26.25L26.875 24.375L23.75 26.25V17.5H22.5C21.837 17.5 21.2011 17.7634 20.7322 18.2322C20.2634 18.7011 20 19.337 20 20V40C20 40.663 20.2634 41.2989 20.7322 41.7678C21.2011 42.2366 21.837 42.5 22.5 42.5H37.5Z" fill="#1E222E"/>
</svg>
