<svg width="47" height="37" viewBox="0 0 47 37" fill="none" xmlns="http://www.w3.org/2000/svg">
<rect x="0.5" y="0.5" width="19" height="21" rx="9.5" fill="url(#paint0_linear_188_84)"/>
<rect x="0.5" y="0.5" width="19" height="21" rx="9.5" stroke="#CCCCCC"/>
<path d="M31.4347 33.2841C30.1444 33.2841 28.9311 33.0414 27.7947 32.5561C26.6643 32.0708 25.667 31.399 24.8029 30.5408C23.9447 29.6767 23.27 28.6795 22.7788 27.549C22.2934 26.4186 22.0537 25.2053 22.0597 23.9091C22.0656 22.6129 22.3112 21.3996 22.7965 20.2692C23.2878 19.1387 23.9625 18.1444 24.8207 17.2862C25.6789 16.4221 26.6732 15.7474 27.8036 15.2621C28.9341 14.7768 30.1444 14.5341 31.4347 14.5341C32.7308 14.5341 33.9441 14.7768 35.0746 15.2621C36.2109 15.7474 37.2053 16.4221 38.0575 17.2862C38.9157 18.1444 39.5875 19.1387 40.0728 20.2692C40.5581 21.3996 40.8037 22.6129 40.8097 23.9091C40.8156 25.2053 40.5759 26.4186 40.0906 27.549C39.6052 28.6795 38.9335 29.6767 38.0753 30.5408C37.2171 31.399 36.2198 32.0708 35.0835 32.5561C33.9471 33.0414 32.7308 33.2841 31.4347 33.2841Z" fill="#D3E1FC"/>
<defs>
<linearGradient id="paint0_linear_188_84" x1="10" y1="0" x2="10" y2="22" gradientUnits="userSpaceOnUse">
<stop stop-color="#2D9EB2"/>
<stop offset="1" stop-color="#4AB67D"/>
</linearGradient>
</defs>
</svg>
