<svg width="786" height="154" viewBox="0 0 786 154" fill="none" xmlns="http://www.w3.org/2000/svg">
<path d="M31.2 77C31.2 86.2 33.2667 94.2667 37.4 101.2C41.6667 108 47.2 113.267 54 117C60.8 120.6 68.2 122.4 76.2 122.4C82.8667 122.4 88.8 121.533 94 119.8C99.2 118.067 103.867 115.733 108 112.8C112.267 109.867 115.933 106.667 119 103.2V135.4C113.267 139.933 107 143.467 100.2 146C93.5333 148.533 85.0667 149.8 74.8 149.8C64.1333 149.8 54.2 148.067 45 144.6C35.9333 141.133 28 136.133 21.2 129.6C14.5333 123.067 9.33333 115.4 5.6 106.6C2 97.6667 0.2 87.8 0.2 77C0.2 66.2 2 56.4 5.6 47.6C9.33333 38.6667 14.5333 30.9333 21.2 24.4C28 17.8667 35.9333 12.8667 45 9.4C54.2 5.93333 64.1333 4.19999 74.8 4.19999C85.0667 4.19999 93.5333 5.46666 100.2 7.99999C107 10.5333 113.267 14.0667 119 18.6V50.8C115.933 47.3333 112.267 44.1333 108 41.2C103.867 38.2667 99.2 35.9333 94 34.2C88.8 32.4667 82.8667 31.6 76.2 31.6C68.2 31.6 60.8 33.4667 54 37.2C47.2 40.8 41.6667 46 37.4 52.8C33.2667 59.6 31.2 67.6667 31.2 77ZM147.458 6.99999H176.058V122H231.858V147H147.458V6.99999ZM248.239 6.99999H277.239V147H248.239V6.99999ZM325.819 147V122.8H396.419V147H325.819ZM325.819 31.2V6.99999H396.419V31.2H325.819ZM325.819 84.6V60.8H392.419V84.6H325.819ZM307.419 6.99999H335.019V147H307.419V6.99999ZM524.206 6.99999H551.806V154L452.206 60.2V147H424.606V-2.86102e-06L524.206 93.8V6.99999ZM568.223 32.8V6.99999H672.223V32.8H634.423V147H605.823V32.8H568.223ZM700.673 100C703.607 105.2 706.807 109.733 710.273 113.6C713.873 117.467 717.807 120.467 722.073 122.6C726.34 124.733 730.94 125.8 735.873 125.8C741.607 125.8 746.273 124.333 749.873 121.4C753.473 118.467 755.273 114.467 755.273 109.4C755.273 105 754.14 101.467 751.873 98.8C749.74 96.1333 746.473 93.8 742.073 91.8C737.807 89.6667 732.54 87.4 726.273 85C722.94 83.8 719.073 82.2 714.673 80.2C710.407 78.0667 706.34 75.4 702.473 72.2C698.607 68.8667 695.407 64.8667 692.873 60.2C690.34 55.4 689.073 49.6667 689.073 43C689.073 35 691.073 28.1333 695.073 22.4C699.207 16.5333 704.74 12.0667 711.673 8.99999C718.74 5.79999 726.607 4.19999 735.273 4.19999C744.207 4.19999 751.873 5.73332 758.273 8.79999C764.807 11.7333 770.207 15.5333 774.473 20.2C778.873 24.7333 782.273 29.4667 784.673 34.4L762.273 46.8C760.407 43.4667 758.14 40.4667 755.473 37.8C752.94 35 750.007 32.8 746.673 31.2C743.34 29.4667 739.54 28.6 735.273 28.6C729.673 28.6 725.473 29.9333 722.673 32.6C719.873 35.1333 718.473 38.1333 718.473 41.6C718.473 45.0667 719.607 48.1333 721.873 50.8C724.14 53.3333 727.607 55.8 732.273 58.2C736.94 60.4667 742.807 62.8 749.873 65.2C754.407 66.8 758.74 68.8 762.873 71.2C767.14 73.6 770.94 76.5333 774.273 80C777.74 83.3333 780.407 87.3333 782.273 92C784.273 96.5333 785.273 101.8 785.273 107.8C785.273 114.6 783.94 120.667 781.273 126C778.607 131.333 774.94 135.867 770.273 139.6C765.607 143.2 760.34 145.933 754.473 147.8C748.74 149.8 742.673 150.8 736.273 150.8C727.74 150.8 719.74 149.2 712.273 146C704.94 142.667 698.54 138.2 693.073 132.6C687.607 127 683.34 120.933 680.273 114.4L700.673 100Z" fill="url(#paint0_linear_374_104)" fill-opacity="0.05"/>
<defs>
<linearGradient id="paint0_linear_374_104" x1="393.5" y1="-67" x2="393.5" y2="156.755" gradientUnits="userSpaceOnUse">
<stop stop-color="#1E222E"/>
<stop offset="0.378252" stop-color="#1E222E"/>
<stop offset="0.722936" stop-color="#0096FF"/>
<stop offset="1" stop-color="#1E222E"/>
</linearGradient>
</defs>
</svg>
